<svg width="558" height="168" viewBox="0 0 558 168" fill="none" xmlns="http://www.w3.org/2000/svg">
<path d="M8.27849 147.86C8.5234 146.835 9.28593 144.46 10.5661 140.734C11.9185 137.069 13.6975 132.162 15.9034 126.013C18.1698 119.791 20.8384 112.431 23.9093 103.931C26.9801 95.4308 30.3926 85.8636 34.1467 75.2293C34.3659 74.6748 34.5157 74.0928 34.5963 73.4835C34.7432 72.8683 34.7964 72.3283 34.7557 71.8634C34.6976 71.1993 34.4519 70.6854 34.0185 70.3218C33.5852 69.9582 32.804 69.8258 31.675 69.9246C28.8856 70.1686 26.6699 71.2324 25.0278 73.116C23.4464 74.9274 22.3314 77.0995 21.683 79.6323C21.1011 82.1594 20.9147 84.6183 21.1238 87.0092C21.1761 87.6069 21.2704 88.3013 21.4065 89.0925C21.5426 89.8836 21.7207 90.7715 21.9407 91.756C20.3468 91.8955 18.9778 91.5468 17.8339 90.71C16.7505 89.8009 15.8822 88.6723 15.2289 87.3241C14.5697 85.9095 14.185 84.5713 14.0746 83.3095C13.8886 81.1842 14.3062 79.0732 15.3274 76.9762C16.4149 74.8734 17.8851 72.9379 19.7381 71.1697C21.5852 69.335 23.6635 67.8482 25.973 66.7093C28.349 65.5645 30.7324 64.8875 33.1233 64.6784C35.5805 64.4634 37.7335 64.9777 39.5823 66.2213C41.4252 67.3985 42.9685 69.7396 44.212 73.2445C45.4498 76.6831 46.3592 81.723 46.9402 88.3643C47.3179 92.6811 47.5353 97.0789 47.5925 101.558C47.7104 105.964 47.7718 110.108 47.7767 113.989C47.7816 117.87 47.9032 121.172 48.1414 123.895C49.1269 119.86 50.3909 115.567 51.9334 111.015C53.5365 106.391 55.2782 101.822 57.1585 97.3077C59.0331 92.7269 60.8977 88.4147 62.7523 84.371C64.607 80.3273 66.2727 76.802 67.7496 73.7952C69.2871 70.7161 70.4597 68.4386 71.2675 66.9626C72.0694 65.4201 72.8037 64.2517 73.4704 63.4572C74.137 62.6628 75.1012 62.2104 76.3631 62.1C77.2929 62.0186 78.7859 62.2561 80.8422 62.8123C80.3549 64.1264 79.8348 66.213 79.2818 69.0721C78.7231 71.8648 78.1386 75.1281 77.5284 78.8622C76.8809 82.9341 76.2681 87.4045 75.6903 92.2734C75.1066 97.0759 74.6284 101.936 74.2556 106.854C73.8828 111.772 73.6225 116.446 73.4747 120.875C73.3875 125.233 73.4891 129.072 73.7796 132.393C73.9307 134.119 74.1162 135.475 74.3362 136.46C74.6226 137.438 74.9306 138.281 75.2602 138.989C75.662 139.757 76.1144 140.721 76.6174 141.881C73.7617 142.131 71.5323 141.891 69.9293 141.162C68.3926 140.426 67.2744 139.118 66.5746 137.239C65.947 135.42 65.4967 132.95 65.2236 129.829C64.5787 122.457 64.7319 114.647 65.6834 106.399C66.6954 98.0795 67.9528 89.5039 69.4555 80.6727C67.8284 83.4919 66.1784 86.815 64.5056 90.642C62.8327 94.469 61.2106 98.4924 59.639 102.712C58.0675 106.932 56.5926 111.11 55.2145 115.245C53.8306 119.315 52.6227 123.101 51.5907 126.604C50.553 130.041 49.7676 132.921 49.2346 135.243C48.6544 135.494 48.2343 135.665 47.9745 135.754C47.781 135.838 47.5183 135.895 47.1862 135.924C44.8618 136.127 43.2454 134.863 42.3373 132.132C41.4897 129.329 40.851 125.47 40.421 120.555C40.1944 117.965 39.9865 115.206 39.7972 112.278C39.6022 109.283 39.4374 106.253 39.303 103.186C39.1627 100.053 38.9921 96.9564 38.7913 93.8955C38.5904 90.8347 38.3679 87.9097 38.1239 85.1203C38.0368 84.1241 37.9164 83.1308 37.7628 82.1404C37.6757 81.1443 37.5914 80.1813 37.5101 79.2515C33.4911 91.4482 30.0878 101.885 27.3 110.56C24.5728 119.164 22.2101 126.197 20.2118 131.659C18.2078 137.054 16.2809 141.037 14.4313 143.608C12.5875 146.245 10.5365 147.663 8.27849 147.86ZM92.0289 136.518C89.8373 136.71 87.8806 136.145 86.1589 134.823C84.3707 133.507 83.3488 131.388 83.0932 128.466C82.8898 126.141 83.2003 123.571 84.0247 120.755C84.8491 117.94 86.0748 115.122 87.702 112.303C89.3291 109.484 91.2452 106.907 93.4501 104.572C95.6492 102.172 98.0522 100.188 100.659 98.6214C103.266 97.0549 105.93 96.1526 108.653 95.9143C111.509 95.6645 113.997 96.183 116.117 97.4697C118.238 98.7565 119.402 100.595 119.611 102.986C119.768 104.779 119.251 106.13 118.059 107.037C116.866 107.944 115.392 108.307 113.637 108.126C113.717 107.517 113.765 106.911 113.779 106.307C113.859 105.698 113.87 105.061 113.812 104.397C113.696 103.069 113.326 101.897 112.702 100.88C112.077 99.8643 110.902 99.4318 109.175 99.5828C107.316 99.7455 105.478 100.542 103.662 101.972C101.847 103.403 100.132 105.226 98.5195 107.441C96.967 109.585 95.601 111.946 94.4213 114.526C93.2358 117.038 92.3462 119.492 91.7527 121.886C91.1591 124.28 90.9436 126.407 91.1063 128.267C91.2922 130.392 92.1489 131.388 93.6764 131.254C95.2039 131.121 96.8336 130.242 98.5653 128.618C100.291 126.928 101.985 124.872 103.647 122.452C105.376 120.025 107.002 117.574 108.525 115.099C110.042 112.557 111.36 110.4 112.476 108.63C112.646 108.28 112.897 108.091 113.23 108.062C113.501 108.105 114.014 108.227 114.767 108.429C115.582 108.559 116.341 108.827 117.046 109.234C117.751 109.64 118.135 110.209 118.199 110.94C118.257 111.604 118.034 112.493 117.529 113.608C117.085 114.651 116.52 115.838 115.833 117.169C115.207 118.429 114.651 119.716 114.163 121.03C113.737 122.272 113.573 123.457 113.671 124.586C113.747 125.449 114.052 126.259 114.587 127.016C115.115 127.705 115.911 128.004 116.974 127.911C118.568 127.771 120.691 126.415 123.343 123.84C126.056 121.194 128.66 116.917 131.155 111.011L133.213 112.738C131.933 116.464 130.286 119.82 128.272 122.807C126.318 125.721 124.18 128.05 121.856 129.793C119.538 131.601 117.118 132.616 114.594 132.837C111.871 133.075 109.77 132.389 108.291 130.779C106.811 129.168 105.918 127.372 105.611 125.392C105.599 125.259 105.591 125.159 105.585 125.093C105.579 125.026 105.573 124.96 105.567 124.894C103.19 128.314 100.953 131.053 98.8579 133.11C96.8289 135.161 94.5526 136.297 92.0289 136.518ZM148.961 129.429C146.504 129.644 144.454 129.154 142.81 127.959C141.172 126.831 140.257 125.171 140.065 122.98C139.903 121.12 140.193 119.087 140.937 116.88C141.681 114.674 142.428 112.5 143.177 110.36C143.993 108.214 144.332 106.344 144.192 104.751C144.059 103.223 143.45 102.005 142.367 101.096C141.278 100.12 140.04 99.3586 138.654 98.8107C137.512 102.591 136.163 106.29 134.605 109.906C133.108 113.45 131.88 116.234 130.919 118.259L129.172 115.501C129.951 113.692 130.964 111.128 132.213 107.806C133.462 104.485 134.612 100.804 135.664 96.7635C134.942 96.1574 134.531 95.2899 134.432 94.1609C134.281 92.4342 134.67 90.7606 135.599 89.1401C136.528 87.5196 137.491 86.6658 138.487 86.5787C139.284 86.5089 139.889 86.9244 140.302 87.8252C140.776 88.6537 141.028 89.234 141.057 89.566C141.086 89.8981 140.972 90.5103 140.716 91.4028C140.526 92.2894 140.382 92.9377 140.284 93.3478C140.414 94.0726 141.042 94.7537 142.169 95.3913C143.356 95.9566 144.688 96.6432 146.164 97.451C147.64 98.2587 148.97 99.3135 150.155 100.615C151.339 101.917 152.025 103.63 152.21 105.756C152.379 107.682 152.119 109.678 151.43 111.746C150.741 113.814 150.04 115.749 149.328 117.552C148.615 119.354 148.314 120.886 148.425 122.148C148.506 123.078 148.794 123.688 149.288 123.98C149.842 124.199 150.452 124.279 151.116 124.221C152.71 124.082 154.329 123.472 155.975 122.391C157.614 121.244 159.197 119.834 160.724 118.161C162.251 116.488 163.572 114.766 164.689 112.996C165.8 111.158 166.626 109.513 167.168 108.061L169.716 109.645C168.704 112.611 167.125 115.593 164.978 118.592C162.825 121.524 160.366 124.014 157.601 126.063C154.83 128.045 151.95 129.167 148.961 129.429ZM178.595 129.346C175.274 129.636 172.524 129.174 170.343 127.96C168.234 126.806 166.658 125.237 165.615 123.254C164.565 121.204 163.945 119.084 163.753 116.892C163.585 114.966 163.719 113.448 164.158 112.339C164.596 111.23 165.193 110.408 165.95 109.874C166.7 109.273 167.396 108.81 168.037 108.487C168.744 108.157 169.249 107.812 169.552 107.451C171.062 105.579 172.581 103.438 174.11 101.029C175.7 98.5476 177.004 95.857 178.021 92.9573L177.934 91.9611C177.702 89.3046 177.971 87.4072 178.741 86.2691C179.572 85.0587 180.585 84.4012 181.781 84.2967C182.578 84.2269 183.16 84.3768 183.527 84.7462C183.96 85.1098 184.233 85.5544 184.346 86.0799C184.381 86.4784 184.322 86.952 184.169 87.5007C184.083 88.0436 184.08 88.78 184.162 89.7098C184.336 91.7021 185.001 93.9527 186.158 96.4615C187.375 98.898 188.573 101.503 189.753 104.278C190.999 107.047 191.752 109.925 192.014 112.914C192.084 113.711 192.114 114.444 192.106 115.114C192.098 115.784 192.053 116.424 191.973 117.033C193.985 116.322 195.912 115.015 197.753 113.114C199.589 111.147 201.252 108.358 202.743 104.748L204.017 105.539C203.086 109.435 201.527 112.65 199.34 115.184C197.146 117.651 194.479 119.29 191.338 120.1C190.513 122.916 188.931 125.095 186.589 126.639C184.315 128.176 181.65 129.078 178.595 129.346ZM177.514 125.024C178.842 124.907 180.042 124.468 181.113 123.705C182.184 122.942 182.996 121.9 183.55 120.581C180.775 120.221 178.224 119.373 175.899 118.038C173.574 116.702 171.744 115.289 170.409 113.8C169.497 114.081 169.11 115.018 169.25 116.612C169.441 118.803 170.252 120.807 171.683 122.623C173.113 124.438 175.057 125.238 177.514 125.024ZM184.085 117.522C184.178 117.046 184.197 116.509 184.145 115.911C184.153 115.241 184.143 114.74 184.114 114.408C183.786 111.425 183.129 108.505 182.143 105.646C181.157 102.788 180.165 99.8634 179.167 96.8723C178.152 99.0357 176.952 101.383 175.567 103.913C174.182 106.443 172.856 108.5 171.589 110.083C172.809 111.783 174.518 113.34 176.716 114.754C178.914 116.168 181.371 117.091 184.085 117.522ZM209.651 124.521C206.729 124.776 204.462 124.105 202.85 122.506C201.238 120.907 200.324 118.879 200.109 116.421C199.975 114.894 200.073 112.945 200.4 110.574C200.728 108.203 201.247 105.715 201.956 103.11C202.725 100.433 203.642 97.9098 204.707 95.5413C205.771 93.1729 206.973 91.2274 208.312 89.7049C209.645 88.116 211.042 87.2576 212.503 87.1298C213.3 87.0601 214.021 87.2647 214.665 87.7437C215.303 88.1563 215.663 88.8275 215.745 89.7573C215.82 90.6207 215.402 91.9622 214.491 93.7819C213.645 95.5958 212.624 97.6928 211.427 100.073C210.297 102.447 209.307 104.909 208.46 107.46C207.673 109.938 207.375 112.272 207.567 114.464C207.753 116.589 208.243 117.985 209.037 118.652C209.892 119.246 211.051 119.48 212.512 119.352C214.77 119.154 217.128 117.81 219.587 115.32C222.046 112.829 224.456 108.637 226.818 102.742L228.452 104.205C226.639 110.252 224.082 115.06 220.78 118.628C217.478 122.196 213.769 124.16 209.651 124.521ZM217.476 78.5638C216.214 78.6742 215.025 78.4771 213.91 77.9723C212.856 77.3953 212.271 76.4427 212.155 75.1145C212.015 73.5205 212.76 72.0835 214.387 70.8035C216.015 69.5234 217.759 68.802 219.619 68.6393C220.814 68.5347 221.834 68.7132 222.677 69.1748C223.587 69.6305 224.103 70.5558 224.225 71.9504C224.347 73.3451 223.702 74.7734 222.291 76.2353C220.874 77.6308 219.269 78.407 217.476 78.5638ZM234.57 122.341C231.449 122.614 229.167 121.776 227.725 119.828C226.344 117.807 225.528 115.369 225.278 112.513C224.994 109.259 225.257 105.388 226.069 100.9C226.881 96.412 228.041 91.693 229.548 86.7427C231.117 81.7203 232.863 76.8161 234.786 72.0303C236.77 67.1722 238.795 62.779 240.861 58.8507C242.926 54.9224 244.859 51.7753 246.66 49.4093C248.521 46.9712 250.083 45.6969 251.344 45.5865C252.208 45.511 252.979 45.9119 253.658 46.7894C254.331 47.6005 254.889 48.6224 255.332 49.8552C255.835 51.0158 256.133 52.1274 256.226 53.19C256.383 54.9831 256.124 57.3815 255.45 60.385C254.836 63.3163 253.85 66.5813 252.492 70.18C251.2 73.773 249.585 77.4946 247.647 81.3448C245.769 85.1229 243.611 88.7581 241.173 92.2506C238.801 95.7372 236.192 98.8096 233.346 101.468C233.226 103.151 233.105 104.835 232.985 106.518C232.925 108.13 232.954 109.6 233.07 110.928C233.279 113.319 233.831 115.044 234.727 116.103C235.617 117.096 236.693 117.537 237.955 117.427C239.615 117.282 241.242 116.37 242.835 114.691C244.489 112.94 246.008 110.8 247.393 108.269C248.838 105.667 250.045 103.018 251.014 100.324L253.518 101.409C251.179 107.57 248.401 112.531 245.183 116.293C241.96 119.988 238.422 122.004 234.57 122.341ZM234.599 95.1345C236.642 92.4797 238.535 89.6372 240.277 86.6071C242.081 83.5048 243.682 80.3868 245.08 77.2529C246.546 74.1133 247.787 71.0936 248.805 68.1938C249.823 65.2941 250.568 62.7194 251.04 60.4696C251.573 58.1477 251.815 56.3197 251.765 54.9856C251.759 54.9192 251.756 54.886 251.756 54.886C251.751 54.8195 251.745 54.7531 251.739 54.6867C251.208 54.7332 250.411 55.5725 249.349 57.2046C248.348 58.7644 247.164 60.9091 245.797 63.6387C244.429 66.3683 243.028 69.4689 241.591 72.9406C240.222 76.4065 238.902 80.0688 237.634 83.9273C236.426 87.7137 235.414 91.4494 234.599 95.1345ZM258.391 120.256C255.469 120.512 253.201 119.841 251.589 118.242C249.977 116.643 249.064 114.615 248.849 112.157C248.715 110.63 248.812 108.681 249.14 106.31C249.468 103.939 249.986 101.451 250.695 98.8457C251.465 96.1685 252.382 93.6456 253.446 91.2772C254.511 88.9087 255.712 86.9633 257.051 85.4408C258.385 83.8518 259.782 82.9935 261.243 82.8656C262.04 82.7959 262.76 83.0006 263.405 83.4796C264.043 83.8922 264.403 84.5634 264.484 85.4931C264.56 86.3565 264.142 87.698 263.23 89.5177C262.385 91.3316 261.364 93.4286 260.167 95.8087C259.036 98.1829 258.047 100.645 257.199 103.195C256.412 105.673 256.115 108.008 256.306 110.2C256.492 112.325 256.983 113.721 257.777 114.388C258.632 114.982 259.79 115.215 261.251 115.088C263.509 114.89 265.868 113.546 268.327 111.056C270.786 108.565 273.196 104.372 275.558 98.4774L277.192 99.9406C275.379 105.988 272.821 110.796 269.52 114.364C266.218 117.932 262.508 119.896 258.391 120.256ZM266.215 74.2997C264.953 74.4101 263.765 74.2129 262.65 73.7081C261.596 73.1312 261.011 72.1786 260.894 70.8503C260.755 69.2564 261.499 67.8194 263.127 66.5393C264.755 65.2592 266.499 64.5378 268.358 64.3751C269.554 64.2705 270.573 64.449 271.417 64.9106C272.327 65.3664 272.842 66.2916 272.964 67.6863C273.087 69.0809 272.442 70.5092 271.031 71.9711C269.613 73.3666 268.008 74.1428 266.215 74.2997ZM287.137 57.412C286.299 57.0168 285.483 56.4859 284.689 55.8193C283.894 55.1526 283.462 54.4208 283.393 53.6239C283.3 52.5613 283.699 51.3887 284.591 50.1061C285.476 48.7571 286.429 47.4023 287.447 46.0417C288.46 44.6146 289.113 43.2859 289.407 42.0557C290.337 41.9743 291.232 42.264 292.093 42.9249C292.948 43.5193 293.417 44.2814 293.498 45.2111C293.579 46.1409 293.216 47.3438 292.408 48.8198C291.661 50.2236 290.784 51.6723 289.777 53.1657C288.77 54.6592 287.89 56.0746 287.137 57.412ZM301.952 118.553C298.631 118.844 295.881 118.382 293.7 117.167C291.591 116.013 290.015 114.445 288.972 112.462C287.922 110.412 287.302 108.291 287.11 106.1C286.942 104.174 287.076 102.656 287.515 101.547C287.953 100.438 288.55 99.616 289.307 99.0814C290.057 98.4804 290.753 98.018 291.394 97.6942C292.101 97.3647 292.606 97.0193 292.909 96.6582C294.418 94.7862 295.938 92.6457 297.467 90.2366C299.057 87.7552 300.36 85.0647 301.378 82.1649L301.291 81.1687C301.059 78.5122 301.328 76.6149 302.098 75.4768C302.929 74.2664 303.942 73.6089 305.138 73.5043C305.935 73.4346 306.517 73.5845 306.884 73.9539C307.317 74.3175 307.59 74.762 307.703 75.2875C307.738 75.686 307.679 76.1596 307.526 76.7084C307.44 77.2513 307.437 77.9876 307.519 78.9174C307.693 80.9098 308.358 83.1604 309.515 85.6691C310.732 88.1057 311.93 90.7112 313.11 93.4856C314.356 96.2542 315.109 99.1328 315.371 102.121C315.441 102.918 315.471 103.652 315.463 104.322C315.455 104.992 315.41 105.631 315.33 106.241C317.342 105.529 319.269 104.223 321.11 102.322C322.946 100.354 324.609 97.5655 326.1 93.9552L327.374 94.7472C326.443 98.6431 324.884 101.858 322.697 104.392C320.503 106.859 317.836 108.497 314.695 109.308C313.87 112.124 312.287 114.303 309.946 115.846C307.672 117.384 305.007 118.286 301.952 118.553ZM300.871 114.231C302.199 114.115 303.399 113.675 304.47 112.912C305.541 112.15 306.353 111.108 306.907 109.788C304.132 109.429 301.581 108.581 299.256 107.245C296.931 105.91 295.101 104.497 293.766 103.008C292.854 103.288 292.467 104.226 292.607 105.819C292.798 108.011 293.609 110.015 295.04 111.83C296.47 113.646 298.414 114.446 300.871 114.231ZM307.442 106.73C307.534 106.253 307.554 105.716 307.502 105.119C307.51 104.449 307.5 103.948 307.471 103.616C307.143 100.633 306.486 97.7123 305.5 94.854C304.514 91.9958 303.522 89.0711 302.524 86.08C301.509 88.2434 300.309 90.5902 298.924 93.1206C297.539 95.6509 296.213 97.7076 294.946 99.2907C296.166 100.991 297.875 102.548 300.073 103.962C302.271 105.375 304.728 106.298 307.442 106.73ZM374.624 115.809C370.772 116.146 367.028 115.804 363.392 114.784C359.823 113.758 356.823 111.979 354.393 109.448C351.963 106.917 350.571 103.626 350.217 99.5747C349.903 95.9883 350.456 93.1293 351.875 90.9974C353.289 88.7992 355.157 87.197 357.478 86.1909C359.799 85.1847 362.089 84.5829 364.347 84.3853C362.419 86.8293 360.995 89.2961 360.075 91.7858C359.222 94.2696 358.891 96.6073 359.083 98.799C359.28 101.057 360.031 103.133 361.334 105.026C362.698 106.848 364.594 108.255 367.024 109.247C369.458 110.305 372.403 110.683 375.856 110.381C378.845 110.12 381.69 109.369 384.392 108.129C387.161 106.883 389.355 105.185 390.973 103.036C392.659 100.881 393.371 98.3087 393.109 95.3201C392.871 92.5972 391.87 90.3425 390.108 88.556C388.406 86.6972 386.26 85.1116 383.669 83.7991C381.072 82.4201 378.351 81.1524 375.506 79.996C372.656 78.7731 369.929 77.439 367.327 75.9937C364.724 74.5483 362.53 72.7996 360.744 70.7474C359.025 68.6894 358.032 66.1329 357.764 63.0779C357.526 60.355 357.938 57.4079 358.999 54.2367C360.12 50.9933 361.824 47.8997 364.109 44.956C366.395 42.0123 369.258 39.5534 372.699 37.5793C376.134 35.5388 380.043 34.3268 384.427 33.9433C389.009 33.5424 392.314 34.2236 394.342 35.9869C396.371 37.7501 397.521 40.1925 397.794 43.3139C398.009 45.7712 397.807 48.4323 397.188 51.2971C396.568 54.162 395.738 56.9115 394.697 59.5456C393.722 62.1739 392.749 64.434 391.777 66.3259C390.287 66.1217 389.142 65.653 388.341 64.92C387.535 64.1205 387.071 63.0235 386.949 61.6288C386.827 60.2341 386.956 58.6502 387.337 56.877C387.783 55.0979 388.29 53.2467 388.858 51.3232C389.493 49.3939 390 47.5427 390.38 45.7694C390.821 43.924 390.983 42.3371 390.867 41.0089C390.762 39.8134 390.316 38.9156 389.527 38.3154C388.805 37.7094 387.381 37.4993 385.256 37.6853C382.068 37.9642 379.207 38.9172 376.672 40.5442C374.138 42.1713 371.967 44.1346 370.161 46.4342C368.421 48.7279 367.124 51.1167 366.271 53.6005C365.412 56.0179 365.066 58.1896 365.235 60.1156C365.444 62.5065 366.388 64.4984 368.066 66.0915C369.739 67.6182 371.832 68.9743 374.345 70.1598C376.924 71.3395 379.603 72.5105 382.382 73.6727C385.226 74.8292 387.92 76.1662 390.462 77.6837C393.07 79.1955 395.243 81.08 396.979 83.3372C398.716 85.5944 399.735 88.4498 400.038 91.9033C400.34 95.3567 399.81 98.4815 398.449 101.277C397.153 104.068 395.256 106.475 392.756 108.501C390.263 110.593 387.429 112.246 384.256 113.461C381.156 114.736 377.945 115.519 374.624 115.809ZM416.643 108.017C413.721 108.273 411.288 107.616 409.344 106.046C407.4 104.476 406.274 101.931 405.966 98.4114C405.727 95.6884 405.929 92.2578 406.571 88.1195C407.279 83.9753 408.241 79.6751 409.458 75.2188C408.981 75.1266 408.408 75.0764 407.738 75.0681C407.129 74.9876 406.513 74.8406 405.892 74.6272L405.622 71.539C406.696 71.5789 407.569 71.603 408.239 71.6113C408.975 71.6138 409.711 71.6163 410.448 71.6188C411.534 67.9769 412.732 64.4591 414.041 61.0654C415.411 57.5995 416.78 54.5018 418.147 51.7722C419.581 49.0368 420.964 46.8747 422.298 45.2858C423.625 43.6305 424.853 42.7534 425.982 42.6546C426.646 42.5965 427.301 42.807 427.945 43.286C428.583 43.6986 428.943 44.3698 429.024 45.2996C429.141 46.6278 428.609 48.5816 427.429 51.1609C426.316 53.7344 424.908 56.7686 423.206 60.2636C421.499 63.6921 419.878 67.3473 418.344 71.2291C418.875 71.1826 419.406 71.1362 419.938 71.0897C420.469 71.0432 420.967 70.9996 421.432 70.9589C424.354 70.7033 426.974 70.4406 429.293 70.1708C431.672 69.8288 434.079 69.4175 436.513 68.9368L436.801 72.2243C433.177 72.8759 429.846 73.435 426.809 73.9015C423.771 74.368 420.861 74.7565 418.077 75.067C417.878 75.0844 417.679 75.1018 417.479 75.1192C417.28 75.1367 417.081 75.1541 416.882 75.1715C415.772 78.5478 414.837 82.0091 414.076 85.5556C413.376 89.0298 413.169 92.394 413.453 95.6483C413.692 98.3712 414.292 100.259 415.254 101.313C416.216 102.366 417.627 102.812 419.486 102.649C422.807 102.359 426.063 100.568 429.255 97.2772C432.508 93.9143 435.203 89.5294 437.34 84.1226L438.822 84.9968C437.438 89.0662 435.59 92.8081 433.279 96.2225C431.034 99.6312 428.496 102.363 425.664 104.417C422.838 106.538 419.831 107.738 416.643 108.017ZM444.025 104.216C440.97 104.484 438.631 103.751 437.007 102.02C435.389 100.354 434.464 98.1934 434.231 95.5369C433.929 92.0835 434.245 88.8101 435.179 85.717C436.179 82.618 437.505 79.7917 439.155 77.2381C440.866 74.6124 442.742 72.3402 444.783 70.4218C446.823 68.5033 448.766 66.9949 450.61 65.8966C452.521 64.7925 454.108 64.1853 455.37 64.0749C455.702 64.0458 456.172 64.0716 456.782 64.1521C457.391 64.2326 457.852 64.5269 458.164 65.035C458.352 64.8847 458.542 64.7677 458.736 64.6838C458.995 64.5942 459.258 64.5377 459.524 64.5145C461.383 64.3518 462.625 64.7785 463.249 65.7946C463.94 66.805 464.341 67.941 464.451 69.2029C464.55 70.3319 464.331 71.656 463.795 73.1752C463.325 74.6886 462.836 76.3709 462.329 78.2221C461.882 80.0012 461.758 82.0197 461.955 84.2778C462.06 85.4732 462.473 86.3739 463.196 86.9799C463.979 87.5137 464.835 87.74 465.765 87.6586C468.355 87.432 470.431 86.6816 471.992 85.4073C473.548 84.0666 474.773 82.3868 475.667 80.3679C476.561 78.3489 477.275 76.1785 477.808 73.8565C478.335 71.4681 478.832 69.1159 479.298 66.7997C478.637 66.1215 478.265 65.3175 478.184 64.3877C478.056 62.9266 478.244 61.6386 478.749 60.5237C479.248 59.3424 479.837 58.4209 480.515 57.7593C481.254 57.0254 481.856 56.6382 482.32 56.5975C483.383 56.5045 484.049 56.8478 484.318 57.6273C484.587 58.4069 484.742 59.0291 484.782 59.494C484.811 59.826 484.664 60.4412 484.341 61.3394C484.085 62.2318 483.971 62.8441 484 63.1761C484.058 63.8403 484.651 64.4911 485.777 65.1287C486.964 65.694 488.296 66.3806 489.772 67.1884C491.248 67.9961 492.581 69.0841 493.772 70.4522C495.023 71.7481 495.741 73.4586 495.927 75.5839C496.101 77.5762 495.877 79.6035 495.255 81.6656C494.632 83.7277 493.998 85.657 493.352 87.4535C492.706 89.2499 492.438 90.7791 492.549 92.0409C492.636 93.0371 492.926 93.6809 493.42 93.9723C493.975 94.1915 494.584 94.272 495.248 94.2139C496.776 94.0803 498.329 93.4759 499.908 92.4009C501.547 91.2536 503.097 89.8465 504.558 88.1796C506.018 86.5126 507.306 84.7938 508.423 83.0231C509.534 81.1859 510.327 79.5439 510.803 78.0969L512.917 79.3173C511.839 82.2893 510.326 85.2658 508.378 88.2469C506.43 91.228 504.143 93.7703 501.517 95.8739C498.956 97.9717 496.182 99.1513 493.193 99.4128C490.736 99.6278 488.652 99.1409 486.942 97.952C485.299 96.7574 484.387 95.1307 484.207 93.0719C484.038 91.1459 484.293 89.0826 484.97 86.8818C485.647 84.6811 486.331 82.5467 487.02 80.4788C487.709 78.4109 487.984 76.58 487.844 74.9861C487.693 73.2593 487.007 71.914 485.785 70.9502C484.557 69.92 483.283 69.128 481.963 68.5742C481.375 71.0348 480.694 73.5705 479.918 76.1814C479.209 78.7864 478.25 81.2126 477.042 83.4598C475.827 85.6406 474.215 87.4881 472.206 89.0023C470.191 90.4501 467.59 91.3134 464.402 91.5923C463.539 91.6679 462.531 91.6222 461.379 91.4553C460.293 91.2826 459.373 91.0954 458.619 90.8937C457.134 94.5705 455.029 97.6657 452.305 100.179C449.641 102.621 446.881 103.967 444.025 104.216ZM445.482 99.0698C446.345 98.9943 447.37 98.4696 448.557 97.4959C449.809 96.5163 451.006 95.274 452.145 93.7689C453.346 92.1916 454.242 90.574 454.833 88.9162C453.275 87.1787 452.334 84.4503 452.009 80.7312C451.939 79.9342 451.945 78.8629 452.028 77.5172C452.178 76.1657 452.391 74.7752 452.667 73.3457C453.004 71.8439 453.428 70.5688 453.939 69.5203C452.721 70.8984 451.484 72.4453 450.229 74.1613C449.035 75.805 447.915 77.5425 446.871 79.3738C445.82 81.1387 444.906 82.9252 444.127 84.7333C443.343 86.475 442.758 88.1992 442.371 89.906C441.98 91.5464 441.848 93.0972 441.975 94.5583C442.132 96.3514 442.508 97.59 443.104 98.2741C443.759 98.8859 444.552 99.1511 445.482 99.0698ZM517.424 122.69C515.763 122.835 514.156 122.44 512.602 121.505C511.12 120.631 510.281 119.065 510.083 116.807C509.897 114.682 510.36 112.701 511.47 110.863C512.587 109.093 514.078 107.39 515.942 105.754C517.812 104.185 519.824 102.704 521.978 101.311C524.204 99.9789 526.335 98.7216 528.373 97.5395C528.935 95.5496 529.52 93.0558 530.128 90.0581C530.796 86.9882 531.352 84.1623 531.796 81.5805C529.987 84.6164 528.016 87.3318 525.883 89.7268C523.75 92.1218 521.256 93.4443 518.4 93.6941C517.205 93.7987 515.923 93.6766 514.554 93.328C513.179 92.9129 511.974 92.1483 510.94 91.0342C509.966 89.8479 509.389 88.2253 509.209 86.1665C509.058 84.4398 509.174 82.3216 509.557 79.812C510.006 77.2967 510.594 74.8361 511.32 72.4303C512.107 69.9522 512.965 67.903 513.894 66.2825C514.817 64.5957 515.677 63.7173 516.474 63.6476C516.873 63.6128 517.452 63.7294 518.211 63.9976C519.032 64.1935 519.83 64.5251 520.607 64.9925C521.378 65.3935 521.89 65.8841 522.141 66.4644C521.613 67.3137 521.051 68.534 520.454 70.1254C519.851 71.6504 519.299 73.3718 518.798 75.2894C518.291 77.1407 517.88 78.95 517.566 80.7174C517.319 82.479 517.25 83.9907 517.361 85.2526C517.448 86.2488 517.723 87.0947 518.185 87.7904C518.647 88.4861 519.443 88.7845 520.572 88.6858C522.033 88.5579 523.475 87.8295 524.898 86.5004C526.387 85.1655 527.781 83.5044 529.08 81.517C530.444 79.5238 531.64 77.5119 532.667 75.4813C532.759 75.0048 532.828 74.2627 532.874 73.2549C532.92 72.247 533.062 71.1973 533.301 70.1056C533.534 68.9476 534.009 67.8688 534.725 66.8693C535.507 65.864 536.661 65.2945 538.189 65.1608C538.72 65.1144 539.221 65.104 539.692 65.1297C540.163 65.1555 540.736 65.2057 541.411 65.2804C541.499 66.2766 541.305 68.2678 540.83 71.2538C540.416 74.1677 539.81 77.5668 539.012 81.4511C538.214 85.3354 537.283 89.2314 536.22 93.1389C538.91 91.7659 541.637 89.6535 544.399 86.802C547.221 83.8782 549.35 79.9109 550.786 74.9L552.601 76.1465C551.895 79.5543 550.621 82.5769 548.777 85.2143C546.999 87.8459 544.924 90.1355 542.552 92.083C540.179 94.0306 537.747 95.6821 535.256 97.0378C533.84 101.511 532.23 105.668 530.424 109.506C528.685 113.339 526.746 116.42 524.608 118.748C522.475 121.143 520.08 122.457 517.424 122.69ZM516.105 119.091C517.367 118.98 519.011 117.498 521.036 114.644C523.062 111.79 525.005 107.605 526.864 102.088C524.832 103.337 522.781 104.754 520.711 106.341C518.714 107.988 517.054 109.672 515.733 111.394C514.411 113.116 513.823 114.807 513.968 116.467C514.026 117.131 514.214 117.75 514.532 118.325C514.917 118.894 515.441 119.149 516.105 119.091Z" fill="#564011"/>
</svg>
